<svg xmlns="http://www.w3.org/2000/svg" xmlns:xlink="http://www.w3.org/1999/xlink" style="vertical-align:-9.63ex" width="46.713ex" height="20.384ex" viewBox="0 -4630.5 20112.4 8776.5"><defs><path id="n" stroke-width="1" d="M213 578l-13-5q-14-5-40-10t-58-7H83v46h19q47 2 87 15t56 24 28 22q2 3 12 3 9 0 17-6V361l1-300q7-7 12-9t24-4 62-2h26V0h-11q-21 3-159 3-136 0-157-3H88v46h64q16 0 25 1t16 3 8 2 6 5 6 4v517z"/><path id="a" stroke-width="1" d="M50 252q0 115 67 221t169 168 204 63q90 0 143-51 9-10 15-17t8-10l1-3q3 0 27 26 7 6 15 14t16 16 10 11l15 15h6q14 0 14-7 0-4-32-137-36-139-36-140-2-5-5-6t-18-2h-16q-6 6-6 9 0 1 1 7t2 20 1 32q0 71-32 124t-109 54q-18 0-39-3t-53-13-61-28-63-48-58-71-47-102-31-134q-2-18-2-39 0-48 14-85t36-57 50-34 52-17 45-4q54 0 99 23t62 59q3 8 15 55t12 53q0 8-13 10t-60 3h-37q-6 6-6 8t2 19q4 13 10 19h17q40-2 140-2h65q25 0 36 1t12 0q14 0 14-9 0-2-2-14-5-19-10-21-3-1-15-1-20 0-41-3-7-3-10-9t-14-51q-9-33-15-56Q589 6 586 3q-2-2-5-2-10 0-28 20t-23 31q0 1-2 0t-6-5q-74-69-200-69-121 0-196 77T50 252z"/><path id="c" stroke-width="1" d="M42 0h-2Q26 0 26 11q0 4 3 16 4 14 7 16t19 3q86 3 135 52 10 10 116 126t105 118Q302 620 297 625q-9 11-63 12h-28q-6 6-6 8t2 19q4 13 10 19h14q34-2 121-2h61q28 0 45 1t20 0q17 0 17-11 0-1-2-13-4-15-7-18t-16-3q-31-3-54-17l77-194 53 59q105 113 105 125 0 18-24 25-5 0-13 2-15 0-15 11 0 2 2 16 4 13 10 19h37q24 0 54-2t41-1q90 0 99 3h8q7-7 7-11-2-25-12-35h-16q-34-1-61-9t-41-17-24-18l-11-9q0 1-95-104l-87-96q0-1 31-80t65-162 37-86q10-9 61-10 35 0 35-9 0-2-2-14-4-16-7-19t-14-3h-33q-30 0-89 1h-93q-32 0-35-1-17 0-17 9 0 1 2 15 2 10 4 14t5 5 9 2 16 1 26 7q17 8 17 10-1 0-47 117l-47 118Q241 95 236 84q-4-8-4-12 0-19 29-25h6q5 0 6-1h4q1 0 3-1t3-3 1-7q0-9-2-16-3-13-6-15t-15-3h-18q-15 0-42 1t-59 0Q64 2 42 0z"/><path id="d" stroke-width="1" d="M96 585q56 81 153 81 48 0 96-26t78-92q37-83 37-228 0-155-43-237-20-42-55-67t-61-31-51-7q-26 0-52 6t-61 32-55 67q-43 82-43 237 0 174 57 265zm225 12q-30 32-71 32-42 0-72-32-25-26-33-72t-8-192q0-158 8-208t36-79q28-30 69-30 40 0 68 30 29 30 36 84t8 203q0 145-8 191t-33 73z"/><path id="e" stroke-width="1" d="M60 749l4 1h22l28-24q94-85 137-212t43-264q0-68-10-131T261 12t-37-88-38-67-41-51-32-33-23-19l-4-4H63q-3 0-5 3t-3 9q1 1 11 13Q221-64 221 250T66 725q-10 12-11 13 0 8 5 11z"/><path id="f" stroke-width="1" d="M56 347q0 13 14 20h637q15-8 15-20 0-11-14-19l-318-1H72q-16 5-16 20zm0-194q0 15 16 20h636q14-10 14-20 0-13-15-20H70q-14 7-14 20z"/><path id="j" stroke-width="1" d="M202 508q-23 0-33 12t-11 27q0 10 6 30t21 47 45 51 71 35l32 5h12q33 0 39-1 63-11 105-53t60-93 17-111q0-95-47-217T402 53q-81-75-179-75-100 0-150 78-31 46-31 92v11q0 117 87 211t193 95q61 0 92-31t41-67l3 11q20 83 20 137 0 88-41 124t-93 37q-78 0-121-64 41-6 41-40 0-25-18-44t-44-20zm228-202q0 66-29 94t-68 28q-63 0-111-46-25-28-39-59t-33-102q-18-72-18-105 0-95 100-95 12 0 18 1 77 13 124 90 15 25 35 84t21 110z"/><path id="k" stroke-width="1" d="M109 429q-27 0-43 18t-16 44q0 71 53 123t132 52q91 0 152-56t62-145q0-43-20-82t-48-68-80-74q-36-31-100-92l-59-56 76-1q157 0 167 5 7 2 24 89v3h40v-3q-1-3-13-91T421 3V0H50v31q0 7 6 15t30 35q29 32 50 56 9 10 34 37t34 37 29 33 28 34 23 30 21 32 15 29 13 32 7 30 3 33q0 63-34 109t-97 46q-33 0-58-17t-35-33-10-19q0-1 5-1 18 0 37-14t19-46q0-25-16-42t-45-18z"/><path id="l" stroke-width="1" d="M118-162q2 0 6-2t11-3 12-1q13 0 24 13t16 29q10 27 34 153t46 240 22 115v3h-47q-47 0-50 2-4 3-4 10l7 28q2 5 8 5t47 1q48 0 48 1 0 2 9 50t12 58q37 165 146 165 37-2 61-22t24-53q0-36-21-52t-42-17q-44 0-44 42 0 19 11 33t24 21l9 5q-16 6-30 6-12 0-23-10t-15-28q-7-29-16-78t-16-83-7-36q0-2 55-2 45 0 52-1t11-6q1-4-2-17t-5-16q-2-5-9-5t-54-1h-56l-23-122Q301 15 282-47q-27-85-70-126-37-32-73-32-32 0-58 19t-26 54q0 37 21 54t42 17q44 0 44-42 0-19-11-33t-24-21l-9-5z"/><path id="m" stroke-width="1" d="M52 289q7 42 54 97t116 56q35 0 64-18t43-45q42 63 101 63 37 0 64-22t28-59q0-29-14-47t-27-22-23-4q-19 0-31 11t-12 29q0 46 50 63-11 13-40 13-13 0-19-2-38-16-56-66-60-221-60-258 0-28 16-40t35-12q37 0 73 33t49 81q3 10 6 11t16 2h4q15 0 15-8 0-1-2-11-16-57-62-101T333-11q-70 0-106 63-41-62-94-62h-6q-49 0-70 26T35 71q0 32 19 52t45 20q43 0 43-42 0-20-12-35t-23-20-13-5l-3-1q0-1 6-4t16-7 19-3q36 0 62 45 9 16 23 68t28 108 16 66q5 27 5 39 0 28-15 40t-34 12q-40 0-75-32t-49-82q-2-9-5-10t-16-2H58q-6 6-6 11z"/><path id="b" stroke-width="1" d="M94 250q0 69 10 131t23 107 37 88 38 67 42 52 33 34 25 21h17q14 0 14-9 0-3-17-21t-41-53-49-86-42-138-17-193 17-192 41-139 49-86 42-53 17-21q0-9-15-9h-16l-28 24q-94 85-137 212T94 250z"/><path id="q" stroke-width="1" d="M78 250q0 24 17 42t43 18q24 0 42-16t19-43q0-25-17-43t-43-18-43 17-18 43zm447 0q0 24 17 42t43 18q24 0 42-16t19-43q0-25-17-43t-43-18-43 17-18 43zm447 0q0 24 17 42t43 18q24 0 42-16t19-43q0-25-17-43t-43-18-43 17-18 43z"/><path id="p" stroke-width="1" d="M21 287q1 6 3 16t12 38 20 47 33 37 46 17q36 0 60-18t30-34 6-21q0-2 1-2l11 11q61 64 139 64 54 0 87-27t34-79-38-157-38-127q0-26 17-26 6 0 9 1 29 5 52 38t35 80q2 8 20 8 20 0 20-8 0-1-4-15-8-29-22-57t-46-56-69-27q-47 0-68 27t-21 56q0 19 36 120t37 152q0 59-44 59h-5q-86 0-145-101l-7-12-33-134Q156 26 151 16q-13-27-43-27-13 0-21 6T76 7t-2 10q0 13 38 163t40 163q1 5 1 23 0 39-24 39-38 0-63-100-6-20-6-21-2-6-19-6H27q-6 6-6 9z"/><path id="o" stroke-width="1" d="M78 30q0 24 17 42t43 18q24 0 42-16t19-43q0-25-17-43t-43-18-43 17-18 43zm0 410q0 24 17 42t43 18q24 0 42-16t19-43q0-25-17-43t-43-18-43 17-18 43zm0 400q0 24 17 42t43 18q24 0 42-16t19-43q0-25-17-43t-43-18-43 17-18 43z"/><path id="r" stroke-width="1" d="M133 760q0 24 17 42t43 18q24 0 42-16t19-43q0-25-17-43t-43-18-43 17-18 43zm447-300q0 24 17 42t43 18q24 0 42-16t19-43q0-25-17-43t-43-18-43 17-18 43zm447-300q0 24 17 42t43 18q24 0 42-16t19-43q0-25-17-43t-43-18-43 17-18 43z"/><path id="g" stroke-width="1" d="M319-645v1799h347v-84H403V-645h-84z"/><path id="i" stroke-width="1" d="M319-644v1799h84V-560h263v-84H319z"/><path id="h" stroke-width="1" d="M319 0v602h84V0h-84z"/><path id="s" stroke-width="1" d="M0 1070v84h347V-645h-84v1715H0z"/><path id="u" stroke-width="1" d="M263-560v1715h84V-644H0v84h263z"/><path id="t" stroke-width="1" d="M263 0v602h84V0h-84z"/></defs><g fill="currentColor" stroke="currentColor" stroke-width="0" transform="scale(1 -1)"><use xlink:href="#a"/><use x="786" xlink:href="#b"/><g transform="translate(1176)"><use xlink:href="#c"/><g transform="matrix(.707 0 0 .707 859 412)"><use xlink:href="#b"/><use x="389" xlink:href="#d"/><use x="890" xlink:href="#e"/></g></g><use x="3040" xlink:href="#e"/><use x="3707" xlink:href="#f"/><g transform="translate(4764 4521)"><use y="-1155" xlink:href="#g"/><use transform="matrix(1 0 0 8.34685 0 -6784.153)" xlink:href="#h"/><use y="-7899" xlink:href="#i"/></g><g transform="translate(5584)"><path stroke="none" d="M708 3538h1247v60H708z"/><g transform="translate(771 3874)"><use transform="scale(.707)" xlink:href="#j"/><use x="817" y="626" transform="scale(.5)" xlink:href="#k"/><use x="1032" transform="scale(.707)" xlink:href="#l"/></g><g transform="translate(768 2829)"><use transform="scale(.707)" xlink:href="#j"/><g transform="translate(401)"><use transform="scale(.707)" xlink:href="#m"/><use x="809" y="488" transform="scale(.5)" xlink:href="#k"/><use x="809" y="-435" transform="scale(.5)" xlink:href="#n"/></g></g><path stroke="none" d="M145 1228h2374v60H145z"/><g transform="translate(772 1564)"><use transform="scale(.707)" xlink:href="#j"/><use x="817" y="626" transform="scale(.5)" xlink:href="#k"/><use x="1032" transform="scale(.707)" xlink:href="#l"/></g><g transform="translate(205 590)"><use transform="scale(.707)" xlink:href="#j"/><g transform="translate(401)"><use transform="scale(.707)" xlink:href="#m"/><use x="809" y="-213" transform="scale(.5)" xlink:href="#k"/></g><use x="1593" transform="scale(.707)" xlink:href="#j"/><g transform="translate(1528)"><use transform="scale(.707)" xlink:href="#m"/><use x="809" y="-213" transform="scale(.5)" xlink:href="#n"/></g></g><use x="1192" y="-1619" xlink:href="#o"/><g><path stroke="none" d="M120-3202h2424v60H120z"/><g transform="translate(772 -2866)"><use transform="scale(.707)" xlink:href="#j"/><use x="817" y="626" transform="scale(.5)" xlink:href="#k"/><use x="1032" transform="scale(.707)" xlink:href="#l"/></g><g transform="translate(180 -3840)"><use transform="scale(.707)" xlink:href="#j"/><g transform="translate(401)"><use transform="scale(.707)" xlink:href="#m"/><use x="809" y="-213" transform="scale(.5)" xlink:href="#p"/></g><use x="1664" transform="scale(.707)" xlink:href="#j"/><g transform="translate(1578)"><use transform="scale(.707)" xlink:href="#m"/><use x="809" y="-213" transform="scale(.5)" xlink:href="#n"/></g></g></g></g><g transform="translate(9248)"><path stroke="none" d="M145 3538h2374v60H145z"/><g transform="translate(772 3874)"><use transform="scale(.707)" xlink:href="#j"/><use x="817" y="626" transform="scale(.5)" xlink:href="#k"/><use x="1032" transform="scale(.707)" xlink:href="#l"/></g><g transform="translate(205 2900)"><use transform="scale(.707)" xlink:href="#j"/><g transform="translate(401)"><use transform="scale(.707)" xlink:href="#m"/><use x="809" y="-213" transform="scale(.5)" xlink:href="#n"/></g><use x="1593" transform="scale(.707)" xlink:href="#j"/><g transform="translate(1528)"><use transform="scale(.707)" xlink:href="#m"/><use x="809" y="-213" transform="scale(.5)" xlink:href="#k"/></g></g><path stroke="none" d="M708 1228h1247v60H708z"/><g transform="translate(771 1564)"><use transform="scale(.707)" xlink:href="#j"/><use x="817" y="626" transform="scale(.5)" xlink:href="#k"/><use x="1032" transform="scale(.707)" xlink:href="#l"/></g><g transform="translate(768 519)"><use transform="scale(.707)" xlink:href="#j"/><g transform="translate(401)"><use transform="scale(.707)" xlink:href="#m"/><use x="809" y="488" transform="scale(.5)" xlink:href="#k"/><use x="809" y="-435" transform="scale(.5)" xlink:href="#k"/></g></g><use x="1192" y="-1619" xlink:href="#o"/><g><path stroke="none" d="M120-3202h2424v60H120z"/><g transform="translate(772 -2866)"><use transform="scale(.707)" xlink:href="#j"/><use x="817" y="626" transform="scale(.5)" xlink:href="#k"/><use x="1032" transform="scale(.707)" xlink:href="#l"/></g><g transform="translate(180 -3840)"><use transform="scale(.707)" xlink:href="#j"/><g transform="translate(401)"><use transform="scale(.707)" xlink:href="#m"/><use x="809" y="-213" transform="scale(.5)" xlink:href="#p"/></g><use x="1664" transform="scale(.707)" xlink:href="#j"/><g transform="translate(1578)"><use transform="scale(.707)" xlink:href="#m"/><use x="809" y="-213" transform="scale(.5)" xlink:href="#k"/></g></g></g></g><g transform="translate(12912)"><use x="55" y="3318" xlink:href="#q"/><use x="55" y="1008" xlink:href="#q"/><use y="-1619" xlink:href="#r"/><use x="55" y="-3422" xlink:href="#q"/></g><g transform="translate(15194)"><path stroke="none" d="M120 3538h2424v60H120z"/><g transform="translate(772 3874)"><use transform="scale(.707)" xlink:href="#j"/><use x="817" y="626" transform="scale(.5)" xlink:href="#k"/><use x="1032" transform="scale(.707)" xlink:href="#l"/></g><g transform="translate(180 2900)"><use transform="scale(.707)" xlink:href="#j"/><g transform="translate(401)"><use transform="scale(.707)" xlink:href="#m"/><use x="809" y="-213" transform="scale(.5)" xlink:href="#n"/></g><use x="1593" transform="scale(.707)" xlink:href="#j"/><g transform="translate(1528)"><use transform="scale(.707)" xlink:href="#m"/><use x="809" y="-213" transform="scale(.5)" xlink:href="#p"/></g></g><path stroke="none" d="M120 1228h2424v60H120z"/><g transform="translate(772 1564)"><use transform="scale(.707)" xlink:href="#j"/><use x="817" y="626" transform="scale(.5)" xlink:href="#k"/><use x="1032" transform="scale(.707)" xlink:href="#l"/></g><g transform="translate(180 590)"><use transform="scale(.707)" xlink:href="#j"/><g transform="translate(401)"><use transform="scale(.707)" xlink:href="#m"/><use x="809" y="-213" transform="scale(.5)" xlink:href="#k"/></g><use x="1593" transform="scale(.707)" xlink:href="#j"/><g transform="translate(1528)"><use transform="scale(.707)" xlink:href="#m"/><use x="809" y="-213" transform="scale(.5)" xlink:href="#p"/></g></g><use x="1192" y="-1619" xlink:href="#o"/><g><path stroke="none" d="M683-3202h1297v60H683z"/><g transform="translate(771 -2866)"><use transform="scale(.707)" xlink:href="#j"/><use x="817" y="626" transform="scale(.5)" xlink:href="#k"/><use x="1032" transform="scale(.707)" xlink:href="#l"/></g><g transform="translate(743 -3911)"><use transform="scale(.707)" xlink:href="#j"/><g transform="translate(401)"><use transform="scale(.707)" xlink:href="#m"/><use x="809" y="488" transform="scale(.5)" xlink:href="#k"/><use x="809" y="-212" transform="scale(.5)" xlink:href="#p"/></g></g></g></g><g transform="translate(18026 4521)"><use y="-1155" xlink:href="#s"/><use transform="matrix(1 0 0 8.34685 0 -6784.153)" xlink:href="#t"/><use y="-7899" xlink:href="#u"/></g><g transform="translate(18693 -4058)"><use transform="scale(.707)" xlink:href="#c"/><g transform="matrix(.5 0 0 .5 607 290)"><use xlink:href="#b"/><use x="389" xlink:href="#d"/><use x="890" xlink:href="#e"/></g></g></g></svg>