<svg xmlns="http://www.w3.org/2000/svg" xmlns:xlink="http://www.w3.org/1999/xlink" style="vertical-align:-4.63ex" width="50.815ex" height="10.259ex" viewBox="0 -2423.9 21878.5 4417.2"><defs><path id="g" stroke-width="1" d="M837 1154q6-6 6-9 0-4-25-39t-65-104-86-161-93-237-80-305q-77-383-77-908 0-32-1-38t-5-7q-2-1-45-1-67 0-69 1-5 2-5 11t-1 60q2 183 13 341t43 352 85 360 142 343 211 323q2 3 5 6t4 5 2 3 3 2 3 1 5 1 6 0h24z"/><path id="a" stroke-width="1" d="M50 252q0 115 67 221t169 168 204 63q90 0 143-51 9-10 15-17t8-10l1-3q3 0 27 26 7 6 15 14t16 16 10 11l15 15h6q14 0 14-7 0-4-32-137-36-139-36-140-2-5-5-6t-18-2h-16q-6 6-6 9 0 1 1 7t2 20 1 32q0 71-32 124t-109 54q-18 0-39-3t-53-13-61-28-63-48-58-71-47-102-31-134q-2-18-2-39 0-48 14-85t36-57 50-34 52-17 45-4q54 0 99 23t62 59q3 8 15 55t12 53q0 8-13 10t-60 3h-37q-6 6-6 8t2 19q4 13 10 19h17q40-2 140-2h65q25 0 36 1t12 0q14 0 14-9 0-2-2-14-5-19-10-21-3-1-15-1-20 0-41-3-7-3-10-9t-14-51q-9-33-15-56Q589 6 586 3q-2-2-5-2-10 0-28 20t-23 31q0 1-2 0t-6-5q-74-69-200-69-121 0-196 77T50 252z"/><path id="c" stroke-width="1" d="M42 0h-2Q26 0 26 11q0 4 3 16 4 14 7 16t19 3q86 3 135 52 10 10 116 126t105 118Q302 620 297 625q-9 11-63 12h-28q-6 6-6 8t2 19q4 13 10 19h14q34-2 121-2h61q28 0 45 1t20 0q17 0 17-11 0-1-2-13-4-15-7-18t-16-3q-31-3-54-17l77-194 53 59q105 113 105 125 0 18-24 25-5 0-13 2-15 0-15 11 0 2 2 16 4 13 10 19h37q24 0 54-2t41-1q90 0 99 3h8q7-7 7-11-2-25-12-35h-16q-34-1-61-9t-41-17-24-18l-11-9q0 1-95-104l-87-96q0-1 31-80t65-162 37-86q10-9 61-10 35 0 35-9 0-2-2-14-4-16-7-19t-14-3h-33q-30 0-89 1h-93q-32 0-35-1-17 0-17 9 0 1 2 15 2 10 4 14t5 5 9 2 16 1 26 7q17 8 17 10-1 0-47 117l-47 118Q241 95 236 84q-4-8-4-12 0-19 29-25h6q5 0 6-1h4q1 0 3-1t3-3 1-7q0-9-2-16-3-13-6-15t-15-3h-18q-15 0-42 1t-59 0Q64 2 42 0z"/><path id="d" stroke-width="1" d="M96 585q56 81 153 81 48 0 96-26t78-92q37-83 37-228 0-155-43-237-20-42-55-67t-61-31-51-7q-26 0-52 6t-61 32-55 67q-43 82-43 237 0 174 57 265zm225 12q-30 32-71 32-42 0-72-32-25-26-33-72t-8-192q0-158 8-208t36-79q28-30 69-30 40 0 68 30 29 30 36 84t8 203q0 145-8 191t-33 73z"/><path id="e" stroke-width="1" d="M60 749l4 1h22l28-24q94-85 137-212t43-264q0-68-10-131T261 12t-37-88-38-67-41-51-32-33-23-19l-4-4H63q-3 0-5 3t-3 9q1 1 11 13Q221-64 221 250T66 725q-10 12-11 13 0 8 5 11z"/><path id="f" stroke-width="1" d="M56 347q0 13 14 20h637q15-8 15-20 0-11-14-19l-318-1H72q-16 5-16 20zm0-194q0 15 16 20h636q14-10 14-20 0-13-15-20H70q-14 7-14 20z"/><path id="j" stroke-width="1" d="M202 508q-23 0-33 12t-11 27q0 10 6 30t21 47 45 51 71 35l32 5h12q33 0 39-1 63-11 105-53t60-93 17-111q0-95-47-217T402 53q-81-75-179-75-100 0-150 78-31 46-31 92v11q0 117 87 211t193 95q61 0 92-31t41-67l3 11q20 83 20 137 0 88-41 124t-93 37q-78 0-121-64 41-6 41-40 0-25-18-44t-44-20zm228-202q0 66-29 94t-68 28q-63 0-111-46-25-28-39-59t-33-102q-18-72-18-105 0-95 100-95 12 0 18 1 77 13 124 90 15 25 35 84t21 110z"/><path id="k" stroke-width="1" d="M109 429q-27 0-43 18t-16 44q0 71 53 123t132 52q91 0 152-56t62-145q0-43-20-82t-48-68-80-74q-36-31-100-92l-59-56 76-1q157 0 167 5 7 2 24 89v3h40v-3q-1-3-13-91T421 3V0H50v31q0 7 6 15t30 35q29 32 50 56 9 10 34 37t34 37 29 33 28 34 23 30 21 32 15 29 13 32 7 30 3 33q0 63-34 109t-97 46q-33 0-58-17t-35-33-10-19q0-1 5-1 18 0 37-14t19-46q0-25-16-42t-45-18z"/><path id="l" stroke-width="1" d="M118-162q2 0 6-2t11-3 12-1q13 0 24 13t16 29q10 27 34 153t46 240 22 115v3h-47q-47 0-50 2-4 3-4 10l7 28q2 5 8 5t47 1q48 0 48 1 0 2 9 50t12 58q37 165 146 165 37-2 61-22t24-53q0-36-21-52t-42-17q-44 0-44 42 0 19 11 33t24 21l9 5q-16 6-30 6-12 0-23-10t-15-28q-7-29-16-78t-16-83-7-36q0-2 55-2 45 0 52-1t11-6q1-4-2-17t-5-16q-2-5-9-5t-54-1h-56l-23-122Q301 15 282-47q-27-85-70-126-37-32-73-32-32 0-58 19t-26 54q0 37 21 54t42 17q44 0 44-42 0-19-11-33t-24-21l-9-5z"/><path id="m" stroke-width="1" d="M52 289q7 42 54 97t116 56q35 0 64-18t43-45q42 63 101 63 37 0 64-22t28-59q0-29-14-47t-27-22-23-4q-19 0-31 11t-12 29q0 46 50 63-11 13-40 13-13 0-19-2-38-16-56-66-60-221-60-258 0-28 16-40t35-12q37 0 73 33t49 81q3 10 6 11t16 2h4q15 0 15-8 0-1-2-11-16-57-62-101T333-11q-70 0-106 63-41-62-94-62h-6q-49 0-70 26T35 71q0 32 19 52t45 20q43 0 43-42 0-20-12-35t-23-20-13-5l-3-1q0-1 6-4t16-7 19-3q36 0 62 45 9 16 23 68t28 108 16 66q5 27 5 39 0 28-15 40t-34 12q-40 0-75-32t-49-82q-2-9-5-10t-16-2H58q-6 6-6 11z"/><path id="n" stroke-width="1" d="M213 578l-13-5q-14-5-40-10t-58-7H83v46h19q47 2 87 15t56 24 28 22q2 3 12 3 9 0 17-6V361l1-300q7-7 12-9t24-4 62-2h26V0h-11q-21 3-159 3-136 0-157-3H88v46h64q16 0 25 1t16 3 8 2 6 5 6 4v517z"/><path id="b" stroke-width="1" d="M94 250q0 69 10 131t23 107 37 88 38 67 42 52 33 34 25 21h17q14 0 14-9 0-3-17-21t-41-53-49-86-42-138-17-193 17-192 41-139 49-86 42-53 17-21q0-9-15-9h-16l-28 24q-94 85-137 212T94 250z"/><path id="i" stroke-width="1" d="M843-635q0-3-6-9h-17q-19 0-20 1-8 8-15 17-101 123-180 263T473-75t-88 291-55 302-28 291-11 284v60q0 9 5 11 2 1 70 1 43 0 45-1 4-1 5-7t1-38q0-590 100-1010t316-726q10-14 10-18z"/><path id="h" stroke-width="1" d="M413-9h-6q-5 0-19-1t-34 0q-54 0-57 1t-4 4q-2 10-2 132v173q0 302 1 305l4 4q2 1 70 1h41q5 0 5-1 4 0 4-17t1-119V127q0-136-4-136z"/><path id="o" stroke-width="1" d="M31 1143q0 11 18 11h10q13 0 16-2t14-16q101-123 180-263t132-288 88-291T544-8t28-291 11-284v-60q0-9-6-11-2-1-69-1-43 0-45 1-4 1-5 7t-1 38q0 551-86 949t-271 697q-13 22-39 61t-30 45z"/><path id="q" stroke-width="1" d="M56-644h-6q-19 0-19 9 0 3 6 13 32 43 63 95 186 299 271 697t86 949q0 42 5 45 2 1 58 1 55 0 57-1 5-2 5-11t1-60q-2-183-13-341t-43-352-85-360-142-343T89-626q-11-14-14-16t-14-2h-5z"/><path id="p" stroke-width="1" d="M579-9h-6q-5 0-19-1t-34 0q-54 0-57 1t-4 4q-2 10-2 132v173q0 302 1 305l4 4q2 1 70 1h41q5 0 5-1 4 0 4-17t1-119V127q0-136-4-136z"/><path id="r" stroke-width="1" d="M139-249h-2q-12 0-18 14v486l1 486q10 13 19 13 13 0 20-15v-970q-8-14-18-14h-2z"/><path id="s" stroke-width="1" d="M78 35v25l16 43 43 18q28 0 50-25t23-88q0-35-9-68t-21-57-26-41-24-27-13-9q-4 0-13 9t-9 13q0 4 11 16t25 30 26 50 16 73V9l-1-1q-2-1-5-2t-6-3-9-2-12-1q-27 0-44 17z"/><path id="t" stroke-width="1" d="M51 0q-5 4-5 7 0 2 169 350t173 352q3 7 28 7 23 0 28-7 3-4 172-352T786 7q0-3-5-7H51zm456 344L384 596 137 92l246-1h247q0 2-123 253z"/><path id="u" stroke-width="1" d="M701-940q0-3-6-9h-31q-2 2-28 27t-45 43-54 61-62 81-63 101-62 125-55 149-45 176-29 203-12 234q0 711 364 1110 23 25 43 44t33 32 15 13h31q6-6 6-9 0-5-20-26t-52-59-72-95-81-143-76-191-60-252-32-316q-2-38-2-109 0-389 94-680t290-494q11-12 11-16z"/><path id="v" stroke-width="1" d="M34 1438q0 8 3 10t13 2h21q2-2 28-27t45-43 54-61 62-81 63-101 62-124 55-149 45-176 29-203 12-234q0-117-7-198-47-572-357-913-23-25-43-44t-33-32-15-13H56q-13 0-17 2t-5 10q54 54 106 124Q428-430 428 251q0 202-26 377t-64 294-93 224-100 163-99 116l-4 4q-2 2-3 4t-3 3l-2 2z"/></defs><g fill="currentColor" stroke="currentColor" stroke-width="0" transform="scale(1 -1)"><use xlink:href="#a"/><use x="786" xlink:href="#b"/><g transform="translate(1176)"><use xlink:href="#c"/><g transform="matrix(.707 0 0 .707 859 412)"><use xlink:href="#b"/><use x="389" xlink:href="#d"/><use x="890" xlink:href="#e"/></g></g><use x="3040" xlink:href="#e"/><use x="3707" xlink:href="#f"/><g transform="translate(4764 2359)"><use y="-1156" xlink:href="#g"/><use transform="matrix(1 0 0 1.11717 0 -2444.594)" xlink:href="#h"/><use y="-3574" xlink:href="#i"/></g><path stroke="none" d="M6475 1376h1247v60H6475z"/><g transform="translate(6538 1712)"><use transform="scale(.707)" xlink:href="#j"/><use x="817" y="626" transform="scale(.5)" xlink:href="#k"/><use x="1032" transform="scale(.707)" xlink:href="#l"/></g><g transform="translate(6535 667)"><use transform="scale(.707)" xlink:href="#j"/><g transform="translate(401)"><use transform="scale(.707)" xlink:href="#m"/><use x="809" y="488" transform="scale(.5)" xlink:href="#k"/><use x="809" y="-435" transform="scale(.5)" xlink:href="#n"/></g></g><path stroke="none" d="M5912-934h2374v60H5912z"/><g transform="translate(6539 -598)"><use transform="scale(.707)" xlink:href="#j"/><use x="817" y="626" transform="scale(.5)" xlink:href="#k"/><use x="1032" transform="scale(.707)" xlink:href="#l"/></g><g transform="translate(5972 -1572)"><use transform="scale(.707)" xlink:href="#j"/><g transform="translate(401)"><use transform="scale(.707)" xlink:href="#m"/><use x="809" y="-213" transform="scale(.5)" xlink:href="#k"/></g><use x="1593" transform="scale(.707)" xlink:href="#j"/><g transform="translate(1528)"><use transform="scale(.707)" xlink:href="#m"/><use x="809" y="-213" transform="scale(.5)" xlink:href="#n"/></g></g><g><path stroke="none" d="M9526 1376h2374v60H9526z"/><g transform="translate(10153 1712)"><use transform="scale(.707)" xlink:href="#j"/><use x="817" y="626" transform="scale(.5)" xlink:href="#k"/><use x="1032" transform="scale(.707)" xlink:href="#l"/></g><g transform="translate(9586 738)"><use transform="scale(.707)" xlink:href="#j"/><g transform="translate(401)"><use transform="scale(.707)" xlink:href="#m"/><use x="809" y="-213" transform="scale(.5)" xlink:href="#n"/></g><use x="1593" transform="scale(.707)" xlink:href="#j"/><g transform="translate(1528)"><use transform="scale(.707)" xlink:href="#m"/><use x="809" y="-213" transform="scale(.5)" xlink:href="#k"/></g></g><g><path stroke="none" d="M10089-934h1247v60h-1247z"/><g transform="translate(10152 -598)"><use transform="scale(.707)" xlink:href="#j"/><use x="817" y="626" transform="scale(.5)" xlink:href="#k"/><use x="1032" transform="scale(.707)" xlink:href="#l"/></g><g transform="translate(10149 -1643)"><use transform="scale(.707)" xlink:href="#j"/><g transform="translate(401)"><use transform="scale(.707)" xlink:href="#m"/><use x="809" y="488" transform="scale(.5)" xlink:href="#k"/><use x="809" y="-435" transform="scale(.5)" xlink:href="#k"/></g></g></g></g><g transform="translate(12187 2359)"><use y="-1155" xlink:href="#o"/><use transform="matrix(1 0 0 1.11878 0 -2444.574)" xlink:href="#p"/><use y="-3574" xlink:href="#q"/></g><g transform="translate(13063 2359)"><use y="-751" xlink:href="#r"/><use transform="matrix(1 0 0 2.31469 0 -2689.328)" xlink:href="#r"/><use y="-3969" xlink:href="#r"/></g><g transform="translate(13341 -1895)"><use transform="scale(.707)" xlink:href="#c"/><g transform="matrix(.5 0 0 .5 607 290)"><use xlink:href="#b"/><use x="389" xlink:href="#d"/><use x="890" xlink:href="#e"/></g></g><use x="14760" xlink:href="#s"/><use x="15205" xlink:href="#t"/><use x="16038" xlink:href="#c"/><use x="17169" xlink:href="#f"/><g transform="translate(18225)"><use xlink:href="#u"/><g transform="translate(889 650)"><use xlink:href="#t"/><g transform="translate(833)"><use xlink:href="#m"/><use x="809" y="-213" transform="scale(.707)" xlink:href="#n"/></g></g><g transform="translate(889 -750)"><use xlink:href="#t"/><g transform="translate(833)"><use xlink:href="#m"/><use x="809" y="-213" transform="scale(.707)" xlink:href="#k"/></g></g><use x="2916" y="-1" xlink:href="#v"/></g></g></svg>